PathFileType	4	(X/Y/Z)	51_2_65_p1_0-534.trc
DataRate	CameraRate	NumFrames	NumMarkers	Units	OrigDataRate	OrigDataStartFrame	OrigNumFrames
54.0	54.0	6	27	m	54.0	66	535
Frame#	Time	RHip			RKnee			RAnkle			RBigToe			RSmallToe			RHeel			LHip			LKnee			LAnkle			LBigToe			LSmallToe			LHeel			Neck			Head			Nose			RShoulder			RElbow			RWrist			RThumb			RIndex			RPinky			LShoulder			LElbow			LWrist			LThumb			LIndex			LPinky			
		X1	Y1	Z1	X2	Y2	Z2	X3	Y3	Z3	X4	Y4	Z4	X5	Y5	Z5	X6	Y6	Z6	X7	Y7	Z7	X8	Y8	Z8	X9	Y9	Z9	X10	Y10	Z10	X11	Y11	Z11	X12	Y12	Z12	X13	Y13	Z13	X14	Y14	Z14	X15	Y15	Z15	X16	Y16	Z16	X17	Y17	Z17	X18	Y18	Z18	X19	Y19	Z19	X20	Y20	Z20	X21	Y21	Z21	X22	Y22	Z22	X23	Y23	Z23	X24	Y24	Z24	X25	Y25	Z25	X26	Y26	Z26	X27	Y27	Z27	
66	1.2222222222222223	0.08916853396698853	0.5357314524180632	0.5900070887313337	0.08684633165458773	0.6119689633209318	1.0609772999144147	0.07270009363854284	0.6962969639739052	1.4741513899013248	0.054646155690842656	0.47602140680304095	1.4848563738159188	0.11924748510621645	0.48281678764962177	1.4870951984642644	0.04539807988377087	0.7847303761220823	1.5362040477069399	-0.09824086402697312	0.5177141784225414	0.5749965686795603	-0.11034249946482132	0.5916338539950408	1.0429343366644148	-0.11189641809147263	0.6499657679150412	1.452510468306147	-0.09619003754546981	0.452628936702825	1.4670669233399174	-0.1379691204864871	0.46905092862567155	1.4705525054249282	-0.10715202776306437	0.7202405636872177	1.5255267697358403	0.0008507235447024025	0.4577966650852452	0.09149552787679939	0.018838540738775122	0.38772194202133115	-0.1346149597729714	0.011908372951069847	0.33382916823809394	-0.013894121331699325	0.14167887765728576	0.4642426671594396	0.18082791353802916	0.16037322195794346	0.4729725356346589	0.44822764005120863	0.08849443905427791	0.3714501733129409	0.6737308826217483	-0.004544885863802173	0.3598440074552046	0.7643596126179222	-0.00017607696628733625	0.3681187819710835	0.7763162457786211	0.036334330391205524	0.4446670255476223	0.790080990781336	-0.1487498043791268	0.4820624485553506	0.18232644267775172	-0.16617578564138996	0.4643132778154494	0.439230792885852	-0.0910904604844386	0.38314700000888796	0.6673195731025201	-0.02891388596990157	0.3298219585310782	0.7193613527826676	-0.04154803164010788	0.2917735139456321	0.7459803045461324	-0.0663326025851466	0.412708861661654	0.7868933895101071
67	1.2407407407407407	0.08905606851124637	0.5364352103689511	0.5856260570559222	0.08716542573978099	0.6113456998542012	1.0648869422067884	0.07835803847595618	0.6774536684038035	1.4696735973778619	0.05763732170075318	0.4886133817055671	1.491187381833842	0.11924477758434995	0.48287911355648183	1.4873748172037837	0.04542250387715849	0.7839294548708761	1.5358281705197814	-0.08802833674597972	0.5049318152807141	0.568638383924675	-0.11486048392268239	0.5893888735765536	1.0424450006064971	-0.11208936829691331	0.6502713633064023	1.4528229959245393	-0.09624793543633917	0.4528758079680976	1.4673830683176607	-0.14380898264219136	0.4843566229701854	1.4784671237891065	-0.10854581714166432	0.7203243630046791	1.5311001930546329	0.005469731694383145	0.44462775661069376	0.09109112431620833	0.018913628535749176	0.3887473269368866	-0.13130002414665426	0.01183410141972346	0.3338313061264315	-0.013850096169515326	0.14187239441837787	0.46444451368616924	0.17702145368164557	0.1608853976074718	0.47466861939938904	0.4521525059625908	0.09333753149070184	0.3752597733232977	0.6781911872285904	0.014888438393558504	0.3486859155050781	0.7616426036939308	0.035578794147309196	0.3662599669354044	0.7863122012222155	0.05016087334008267	0.4349366282305318	0.7905219198589404	-0.1484055119010119	0.48208471450657414	0.17916262471961317	-0.16210872374907087	0.4675001290597077	0.439604489600028	-0.10103288149131422	0.36779180835591674	0.6679657624960104	-0.036787062133499325	0.316067102776433	0.7319822758866227	-0.04632016093250786	0.29020424836451947	0.746422743391008	-0.07737431989521713	0.4327209009968532	0.7935866865114303
68	1.2592592592592593	0.08934141583866234	0.5363492712673883	0.5817267773098006	0.09198228731402995	0.6271492782756094	1.0690993567621359	0.07839821970127225	0.6770258615265277	1.4696086942179463	0.05465627501240188	0.47597076248075343	1.4850994018003354	0.11926438688568808	0.48254129525792094	1.4872742410124467	0.04555917413103698	0.7838754342261279	1.5359254911979547	-0.0973088373026628	0.51803389489129	0.567958569347072	-0.11547438848891678	0.5873902228595557	1.0371279867905765	-0.1118517536398004	0.6499076252196597	1.4523389143738497	-0.09386549987925742	0.46518257811050334	1.4782384708510294	-0.1428768980986786	0.4841379109384079	1.4746794672174814	-0.10709672134608887	0.7199800698183698	1.525097666158211	0.005481572939069121	0.44446533664248195	0.09129913899634641	0.0189126341828538	0.3885510160431706	-0.13116107319371237	0.00941883480134729	0.322410297104884	-0.013653576792196077	0.1417044280043649	0.46401878618074316	0.18101099850933933	0.16061307959233806	0.4730394297670979	0.45184670807479554	0.10135484863055226	0.3902742772692209	0.6850651043743906	0.03333346636831425	0.34033192753963826	0.7660583892732099	0.05803944343777493	0.34172647422335606	0.7860848188234222	0.06723988399622709	0.396638552595887	0.7939957649292365	-0.14839205061323743	0.48210518320996004	0.17915522393119007	-0.16603506949747737	0.4640811639019326	0.4356283374309072	-0.11357011998165757	0.36646572438816627	0.6721681382852744	-0.057398699555286266	0.3308868159028471	0.7476018561368406	-0.06637541983183075	0.306283869306215	0.7620642696878751	-0.10369415238940871	0.4099710858218894	0.7883793849953109
69	1.2777777777777777	0.09016664749314028	0.5356035907900304	0.5738432194373178	0.08756345578909379	0.6144246395448312	1.065335561085438	0.07836579763092001	0.6772395332052505	1.4696696013604111	0.058596078044349666	0.49134140171650065	1.4966188355494143	0.11931940618003405	0.4831282132666063	1.4876024010725806	0.04546495968816537	0.7836777857896671	1.5357461406173665	-0.09128569603307417	0.5063912256685249	0.5624252262028321	-0.11489659222893807	0.5896771505524734	1.0422047158675067	-0.11294464634513898	0.6500724815627358	1.4565852125657133	-0.09372664491340346	0.4660454720807142	1.4786172683136316	-0.14389712460484924	0.4847635318013497	1.4786138338781625	-0.10892428010237604	0.7170293534224219	1.524934792038013	0.005464692554902847	0.44441338412430775	0.09146762802889888	0.018907941330982486	0.3884440959463022	-0.1311075158415577	0.009435671184624244	0.322231870126795	-0.013637398851170173	0.13773048537244117	0.46211351224079106	0.1809396465303325	0.1602926204224227	0.4726371436447952	0.45587886545701034	0.10589683039070677	0.3930241543801343	0.685555470751206	0.04589110090360831	0.36562338006578876	0.7747455935517686	0.06827721018825005	0.36802969159307014	0.7932876172472751	0.08475114844587107	0.3978624396154942	0.7991525577293845	-0.14864439698944792	0.4818951559712596	0.18228151641838436	-0.16842022829619155	0.45140450643307517	0.4377135507009568	-0.11387040418064591	0.36622763420712345	0.6753464930214653	-0.07240256716800555	0.355846096977836	0.7591006391007895	-0.08562371250853344	0.32867154322394493	0.7689560824876316	-0.11640833270919144	0.3730815802617477	0.7777668146462916
70	1.2962962962962963	0.0820472163928753	0.5188673991814949	0.5628434899650604	0.08311481731880523	0.6093173496694898	1.0547092735908514	0.07830389702583035	0.677152032327744	1.4696322168939107	0.05557104137418037	0.4782289479139001	1.4901415487700143	0.11927815368106828	0.48263385298726286	1.4873353933238953	0.045381127067581656	0.7839268278560617	1.5359164088386343	-0.0917357888853718	0.5042497023027036	0.5577445798204267	-0.11515453095915316	0.5874442400615492	1.0361305003988892	-0.11294613615224741	0.6498223370374395	1.4562856649019962	-0.09594057276651063	0.4516230162985429	1.4717332840801796	-0.1438745989190116	0.48447336888924164	1.4785611170951232	-0.10671557688702912	0.7309979341259644	1.5322430197390222	0.0055111512420356985	0.44418085258745926	0.09163964408968052	0.018877554167029003	0.3885199672909277	-0.1309516837633559	0.009311330750976727	0.3226153415120635	-0.01361818441918203	0.14173908333532106	0.4486502967584271	0.18012530703437504	0.16034629744874365	0.47232217085073236	0.45598590869363276	0.11057382412022612	0.397149168152839	0.6938062854667788	0.04880630219998113	0.38040755088911016	0.7819909061554314	0.07248886514312886	0.38383324029521787	0.8025575086943202	0.10130958745858293	0.3897724343562412	0.7970212465864143	-0.14839794063551318	0.48203063668816376	0.17918404173763397	-0.16837897176210054	0.4513698624174816	0.4374561820023882	-0.12875009880806282	0.39135708313012857	0.6810032703861254	-0.09086301213805449	0.36952988556695154	0.7641211617128648	-0.10864936604351996	0.34958635065808	0.7755060530337482	-0.13414424586990448	0.4148472070591006	0.7848568667708633
71	1.3148148148148149	0.08218695543027738	0.5191319705141895	0.567055360188853	0.08232695335353839	0.6074386227657417	1.0502047693859553	0.07830241870183924	0.676895870329496	1.469503145260722	0.05859176980890473	0.4910728145453537	1.4965024024301259	0.1192834203675364	0.48262359039976466	1.4874635622904142	0.04523437262450652	0.7830741853172921	1.5355562940959608	-0.09648721992262856	0.5203615853589926	0.5618451191414621	-0.11072127953935795	0.5889544101116411	1.0363828988527841	-0.11180673505964997	0.6493162696795791	1.4516586083720249	-0.09369867382670957	0.46493799604073754	1.4783258455982677	-0.14389204769524946	0.48457907318107635	1.4787485255119455	-0.10779318714216136	0.716864835875319	1.5201787946509946	0.005500309533705033	0.4440681901980755	0.09159971648947157	0.018875493463971604	0.3884307652495844	-0.1310646540103962	0.009219583614125107	0.32227465436082414	-0.013650768081348498	0.14548103190516348	0.4501781137686376	0.18403921878952628	0.16458206998133912	0.47453357514480765	0.4564117036579238	0.11377272159167032	0.4091123272862588	0.6965589263805447	0.051875015128943366	0.39343923266445624	0.7894243463914048	0.07359890505136295	0.3831274177089216	0.8031638115312558	0.1057435596512538	0.3911785479487655	0.800498998770116	-0.1484714710599185	0.481821131915308	0.1792396481621488	-0.16825700340316946	0.45237740266939397	0.44118467444191306	-0.1424935733014948	0.4057963431120956	0.684536697833126	-0.10300591375947542	0.3620681920996531	0.762537416239769	-0.11844513441260825	0.3600909505066684	0.778048400868626	-0.15705133803531574	0.44240396256104864	0.7930021250838521
